<?xml version="1.0" encoding="UTF-8"?>
<svg xmlns="http://www.w3.org/2000/svg" xmlns:xlink="http://www.w3.org/1999/xlink" width="392pt" height="367pt" viewBox="0 0 392 367" version="1.1">
<g id="surface1">
<path style=" stroke:none;fill-rule:evenodd;fill:rgb(0%,68.199158%,93.699646%);fill-opacity:1;" d="M 76.3125 0.691406 L 240.5625 8.988281 L 347.960938 27.078125 C 367.878906 33.585938 382.066406 46.605469 391.5 65.027344 L 391.652344 135.453125 L 382.058594 134.945313 C 378.785156 130.644531 374.339844 126.988281 367.320313 124.75 C 359.4375 125.710938 351.664063 125.886719 343.90625 125.949219 L 335.773438 78.328125 C 328.140625 50.675781 305.300781 41.050781 270.023438 42.015625 C 210.128906 39.546875 145.515625 46.152344 80.230469 54.054688 C 52.710938 59.054688 42.40625 85.507813 43.875 126.640625 L 15.835938 127.398438 C 20.410156 97.128906 21.183594 66.097656 29.566406 36.589844 C 36.296875 12.894531 55.207031 1.507813 76.3125 0.691406 "/>
<path style=" stroke:none;fill-rule:evenodd;fill:rgb(0%,68.199158%,93.699646%);fill-opacity:1;" d="M 317.765625 366.03125 L 153.398438 360.246094 L 45.714844 343.796875 C 25.691406 337.597656 11.292969 324.792969 1.550781 306.519531 L 0.234375 236.101563 L 9.839844 236.464844 C 13.183594 240.714844 17.6875 244.304688 24.742188 246.433594 C 32.609375 245.351563 40.378906 245.0625 48.132813 244.878906 L 57.050781 292.367188 C 65.140625 319.898438 88.136719 329.175781 123.394531 327.671875 C 183.324219 329.222656 247.816406 321.636719 312.964844 312.738281 C 340.398438 307.316406 350.488281 286.507813 348.34375 245.402344 L 379.152344 244.210938 C 375.074219 274.546875 371.804688 299.796875 363.910156 329.425781 C 357.574219 353.222656 338.855469 364.894531 317.765625 366.03125 "/>
<path style=" stroke:none;fill-rule:nonzero;fill:rgb(13.699341%,12.199402%,12.5%);fill-opacity:1;" d="M 54.304688 160.171875 C 48.804688 158.328125 44.058594 157.421875 40.066406 157.421875 C 36.261719 157.421875 33.171875 158.207031 30.878906 159.71875 C 28.542969 161.261719 27.375 163.347656 27.375 166.011719 C 27.375 168.15625 28.351563 170.246094 30.3125 172.300781 C 32.269531 174.390625 36.261719 177.535156 42.328125 181.738281 C 48.390625 185.976563 52.722656 189.753906 55.246094 193.082031 C 57.769531 196.4375 59.050781 200.101563 59.050781 204.121094 C 59.050781 210.203125 56.488281 215.253906 51.328125 219.277344 C 46.167969 223.300781 39.613281 225.296875 31.707031 225.296875 C 26.542969 225.296875 20.519531 224.210938 13.589844 222.027344 L 13.589844 210.050781 C 20.292969 212.261719 25.941406 213.347656 30.574219 213.347656 C 34.039063 213.347656 36.753906 212.589844 38.710938 211.078125 C 40.632813 209.566406 41.609375 207.539063 41.609375 205 C 41.609375 202.640625 40.332031 200.128906 37.769531 197.46875 C 35.171875 194.808594 30.6875 191.417969 24.285156 187.273438 C 15.09375 181.316406 10.5 174.480469 10.5 166.734375 C 10.5 160.65625 13.023438 155.574219 18.070313 151.523438 C 23.082031 147.5 29.371094 145.472656 36.867188 145.472656 C 41.5 145.472656 47.335938 146.441406 54.304688 148.375 Z M 138.523438 224.417969 L 120.519531 224.417969 L 120.519531 215.011719 L 119.992188 215.011719 C 115.359375 222 109.371094 225.476563 101.988281 225.476563 C 95.734375 225.476563 90.234375 223.148438 85.453125 218.429688 C 80.667969 213.742188 78.257813 203.214844 78.257813 186.851563 C 78.257813 172.300781 80.066406 161.835938 83.683594 155.425781 C 87.296875 149.011719 93.472656 145.804688 102.214844 145.804688 C 106.320313 145.804688 109.671875 146.589844 112.195313 148.132813 C 114.757813 149.644531 117.316406 152.097656 119.992188 155.484375 L 120.519531 155.484375 L 120.519531 146.953125 L 138.523438 146.953125 Z M 108.957031 212.804688 C 113.589844 212.804688 116.675781 210.597656 118.222656 206.148438 C 119.765625 201.734375 120.519531 194.203125 120.519531 183.554688 C 120.519531 174.238281 119.839844 167.675781 118.445313 163.863281 C 117.054688 160.050781 114.113281 158.144531 109.59375 158.144531 C 105.113281 158.144531 102.023438 159.898438 100.292969 163.4375 C 98.558594 167.007813 97.695313 173.390625 97.695313 182.675781 C 97.695313 193.597656 98.371094 201.371094 99.726563 205.9375 C 101.085938 210.535156 104.171875 212.804688 108.957031 212.804688 Z M 180.441406 146.710938 L 180.441406 154.152344 L 180.894531 154.152344 C 185.527344 148.46875 191.777344 145.621094 199.652344 145.621094 C 213.625 145.621094 220.59375 151.765625 220.59375 163.984375 L 220.59375 224.417969 L 202.738281 224.417969 L 202.738281 168.15625 C 202.738281 160.535156 198.972656 156.726563 191.480469 156.726563 C 188.015625 156.726563 185.265625 157.722656 183.269531 159.777344 C 181.234375 161.804688 180.21875 164.589844 180.21875 168.15625 L 180.21875 224.417969 L 162.136719 224.417969 L 162.136719 146.710938 Z M 245.300781 107.539063 L 263.417969 107.539063 L 263.417969 157.238281 L 263.832031 157.238281 C 267.222656 149.496094 273.476563 145.621094 282.589844 145.621094 C 289.371094 145.621094 294.941406 148.164063 299.3125 153.246094 C 303.683594 158.328125 305.867188 168.15625 305.867188 182.675781 C 305.867188 200.402344 303.945313 211.925781 300.027344 217.28125 C 296.148438 222.636719 290.121094 225.296875 281.949219 225.296875 C 274.152344 225.296875 268.050781 221.425781 263.605469 213.683594 L 263.191406 213.683594 L 263.191406 224.417969 L 245.300781 224.417969 Z M 286.695313 188.453125 C 286.695313 177.445313 285.902344 169.609375 284.320313 164.953125 C 282.738281 160.292969 279.5 157.964844 274.640625 157.964844 C 270.535156 157.964844 267.597656 159.839844 265.828125 163.621094 C 264.058594 167.402344 263.191406 173.453125 263.191406 181.800781 C 263.191406 193.082031 264.019531 201.097656 265.675781 205.847656 C 267.335938 210.597656 270.460938 212.984375 275.09375 212.984375 C 279.273438 212.984375 282.289063 211.050781 284.019531 207.179688 C 285.789063 203.304688 286.695313 197.074219 286.695313 188.453125 Z M 386.542969 188.273438 L 345.941406 188.273438 C 345.941406 196.652344 346.65625 203.003906 348.089844 207.269531 C 349.519531 211.5625 352.910156 213.683594 358.296875 213.683594 C 362.398438 213.683594 365.1875 212.441406 366.65625 209.960938 C 368.125 207.480469 368.914063 203.609375 368.992188 198.285156 L 385.414063 198.285156 C 384.925781 216.402344 375.355469 225.476563 356.75 225.476563 C 336.714844 225.476563 326.734375 212.773438 326.734375 187.363281 C 326.734375 159.65625 337.089844 145.804688 357.84375 145.804688 C 365.714844 145.804688 372.457031 148.195313 378.109375 153.003906 C 383.71875 157.78125 386.542969 167.675781 386.542969 182.675781 Z M 368.3125 177.019531 C 368.3125 169.339844 367.5625 163.832031 366.015625 160.476563 C 364.472656 157.148438 361.683594 155.484375 357.617188 155.484375 C 352.835938 155.484375 349.710938 157.238281 348.199219 160.746094 C 346.695313 164.257813 345.941406 169.671875 345.941406 177.019531 L 368.3125 177.019531 "/>
</g>
</svg>
